<?xml version="1.0" encoding="utf-8"?>
<svg viewBox="0 0 500 500" xmlns="http://www.w3.org/2000/svg">
  <g style="" transform="matrix(0.720255, 0, 0, 0.749404, 17.432081, 20.963112)">
    <g>
      <rect x="30.142" y="83.653" width="226.552" height="220.191" style="fill: rgb(216, 216, 216); stroke-width: 11px; stroke: rgb(90, 90, 90);"/>
      <line style="stroke: rgb(86, 85, 85); stroke-width: 10px;" x1="55.598" y1="117.575" x2="236.442" y2="117.447"/>
      <line style="stroke: rgb(86, 85, 85); stroke-width: 10px;" x1="55.598" y1="179.539" x2="236.442" y2="179.411"/>
      <line style="stroke: rgb(86, 85, 85); stroke-width: 10px;" x1="55.428" y1="148.557" x2="236.272" y2="148.429"/>
      <line style="stroke: rgb(86, 85, 85); stroke-width: 10px;" x1="55.598" y1="210.521" x2="236.442" y2="210.393"/>
      <line style="stroke: rgb(86, 85, 85); stroke-width: 10px;" x1="55.598" y1="241.503" x2="236.442" y2="241.376"/>
      <line style="stroke: rgb(86, 85, 85); stroke-width: 10px;" x1="55.428" y1="272.485" x2="236.272" y2="272.358"/>
    </g>
  </g>
  <g transform="matrix(0.720255, 0, 0, 0.749404, 48.623428, 62.264984)" style="">
    <g>
      <rect x="30.142" y="83.653" width="226.552" height="220.191" style="fill: rgb(216, 216, 216); stroke-width: 11px; stroke: rgb(90, 90, 90);"/>
      <line style="stroke: rgb(86, 85, 85); stroke-width: 10px;" x1="55.598" y1="117.575" x2="236.442" y2="117.447"/>
      <line style="stroke: rgb(86, 85, 85); stroke-width: 10px;" x1="55.598" y1="179.539" x2="236.442" y2="179.411"/>
      <line style="stroke: rgb(86, 85, 85); stroke-width: 10px;" x1="55.428" y1="148.557" x2="236.272" y2="148.429"/>
      <line style="stroke: rgb(86, 85, 85); stroke-width: 10px;" x1="55.598" y1="210.521" x2="236.442" y2="210.393"/>
      <line style="stroke: rgb(86, 85, 85); stroke-width: 10px;" x1="55.598" y1="241.503" x2="236.442" y2="241.376"/>
      <line style="stroke: rgb(86, 85, 85); stroke-width: 10px;" x1="55.428" y1="272.485" x2="236.272" y2="272.358"/>
    </g>
  </g>
  <g transform="matrix(0.720255, 0, 0, 0.749404, 80.131996, 100.123787)" style="">
    <g>
      <rect x="30.142" y="83.653" width="226.552" height="220.191" style="fill: rgb(216, 216, 216); stroke-width: 11px; stroke: rgb(90, 90, 90);"/>
      <line style="stroke: rgb(86, 85, 85); stroke-width: 10px;" x1="55.598" y1="117.575" x2="236.442" y2="117.447"/>
      <line style="stroke: rgb(86, 85, 85); stroke-width: 10px;" x1="55.598" y1="179.539" x2="236.442" y2="179.411"/>
      <line style="stroke: rgb(86, 85, 85); stroke-width: 10px;" x1="55.428" y1="148.557" x2="236.272" y2="148.429"/>
      <line style="stroke: rgb(86, 85, 85); stroke-width: 10px;" x1="55.598" y1="210.521" x2="236.442" y2="210.393"/>
      <line style="stroke: rgb(86, 85, 85); stroke-width: 10px;" x1="55.598" y1="241.503" x2="236.442" y2="241.376"/>
      <line style="stroke: rgb(86, 85, 85); stroke-width: 10px;" x1="55.428" y1="272.485" x2="236.272" y2="272.358"/>
    </g>
  </g>
  <path d="M 200.23 252.13 L 274.073 252.13 L 274.073 240.63 L 309.073 270.63 L 274.073 300.63 L 274.073 289.13 L 200.23 289.13 L 200.23 252.13 Z" style="fill: rgb(245, 161, 40);" transform="matrix(0.786747, 0.617276, -0.617276, 0.786747, 221.358643, -99.477509)"/>
  <path d="M 335.212 305.348 L 334.672 306.968 C 332.892 306.461 331.625 305.661 330.872 304.568 C 330.125 303.475 329.752 302.155 329.752 300.608 L 329.752 297.808 C 329.752 296.788 329.519 295.991 329.052 295.418 C 328.585 294.851 327.869 294.568 326.902 294.568 L 326.902 292.558 C 327.869 292.558 328.585 292.278 329.052 291.718 C 329.519 291.151 329.752 290.355 329.752 289.328 L 329.752 286.508 C 329.752 284.955 330.125 283.631 330.872 282.538 C 331.625 281.451 332.892 280.658 334.672 280.158 L 335.212 281.758 C 334.212 282.071 333.499 282.641 333.072 283.468 C 332.652 284.295 332.442 285.308 332.442 286.508 L 332.442 289.328 C 332.442 290.288 332.249 291.131 331.862 291.858 C 331.482 292.585 330.905 293.155 330.132 293.568 C 330.905 293.988 331.482 294.565 331.862 295.298 C 332.249 296.031 332.442 296.868 332.442 297.808 L 332.442 300.608 C 332.442 301.808 332.652 302.818 333.072 303.638 C 333.499 304.451 334.212 305.021 335.212 305.348 ZM 340.306 301.988 L 337.606 301.988 L 337.606 299.228 L 340.306 299.228 L 340.306 301.988 ZM 347.046 301.988 L 344.346 301.988 L 344.346 299.228 L 347.046 299.228 L 347.046 301.988 ZM 350.026 306.968 L 349.476 305.348 C 350.463 305.021 351.17 304.451 351.596 303.638 C 352.023 302.818 352.236 301.808 352.236 300.608 L 352.236 297.808 C 352.236 296.828 352.443 295.975 352.856 295.248 C 353.263 294.521 353.896 293.961 354.756 293.568 C 353.896 293.195 353.263 292.641 352.856 291.908 C 352.443 291.181 352.236 290.321 352.236 289.328 L 352.236 286.508 C 352.236 285.308 352.023 284.295 351.596 283.468 C 351.17 282.641 350.463 282.071 349.476 281.758 L 350.026 280.158 C 351.793 280.658 353.053 281.451 353.806 282.538 C 354.553 283.631 354.926 284.955 354.926 286.508 L 354.926 289.328 C 354.926 290.355 355.16 291.151 355.626 291.718 C 356.093 292.278 356.813 292.558 357.786 292.558 L 357.786 294.568 C 356.813 294.568 356.093 294.851 355.626 295.418 C 355.16 295.991 354.926 296.788 354.926 297.808 L 354.926 300.608 C 354.926 302.155 354.553 303.475 353.806 304.568 C 353.053 305.661 351.793 306.461 350.026 306.968 Z" transform="matrix(5.426586151123047, 0, 0, 6.458785057067871, -1485.6044921875, -1531.5465087890625)" style="fill: rgb(245, 161, 40); white-space: pre;"/>
  <line style="stroke-width: 7px; stroke: rgb(107, 106, 106);" x1="9" y1="33.845" x2="9" y2="100"/>
  <line style="stroke-width: 7px; stroke: rgb(107, 106, 106);" x1="9" y1="100" x2="39.142" y2="100"/>
  <line style="stroke-width: 7px; stroke: rgb(107, 106, 106);" x1="9" y1="100" x2="9" y2="145.017"/>
  <line style="stroke-width: 7px; stroke: rgb(106, 106, 106);" x1="9" y1="145.017" x2="70.333" y2="145.017"/>
  <line style="stroke-width: 7px; stroke: rgb(107, 106, 106);" x1="9" y1="145.017" x2="9" y2="200"/>
  <line style="stroke-width: 7px; stroke: rgb(106, 106, 106);" x1="9" y1="200" x2="101.842" y2="200"/>
</svg>