<?xml version="1.0" encoding="utf-8"?>
<svg viewBox="0 0 500 500" xmlns="http://www.w3.org/2000/svg">
  <g transform="matrix(1.204767, 0, 0, 1.225674, -449.228394, -59.488327)" style="">
    <rect x="413.835" y="86.221" width="312.424" height="345.059" style="fill: rgb(216, 216, 216); stroke-width: 11px; stroke: rgb(90, 90, 90);"/>
    <line style="stroke: rgb(86, 85, 85); stroke-width: 10px;" x1="456.717" y1="131.811" x2="693.702" y2="131.543"/>
    <line style="stroke: rgb(86, 85, 85); stroke-width: 10px;" x1="456.717" y1="173.615" x2="693.702" y2="173.347"/>
    <line style="stroke: rgb(86, 85, 85); stroke-width: 10px;" x1="456.717" y1="257.223" x2="693.702" y2="256.955"/>
    <line style="stroke: rgb(86, 85, 85); stroke-width: 10px;" x1="456.717" y1="215.419" x2="693.702" y2="215.151"/>
    <line style="stroke: rgb(86, 85, 85); stroke-width: 10px;" x1="456.717" y1="299.027" x2="693.702" y2="298.759"/>
    <line style="stroke: rgb(86, 85, 85); stroke-width: 10px;" x1="456.717" y1="382.635" x2="693.702" y2="382.367"/>
    <line style="stroke: rgb(86, 85, 85); stroke-width: 10px;" x1="456.717" y1="340.831" x2="693.702" y2="340.563"/>
  </g>
  <g transform="matrix(1.204767, 0, 0, 1.225674, -23.3972, -13.444374)" style="">
    <rect x="150.025" y="137.324" width="129.253" height="191.526" style="fill: rgb(216, 216, 216); stroke: rgb(81, 81, 81); stroke-width: 5px;" transform="matrix(0.982417, 0.186698, -0.186698, 0.982417, 53.986668, -37.88847)"/>
    <g transform="matrix(1.060691, 0.201573, -0.199552, 1.05006, -386.077972, -115.345215)" style="">
      <path d="M 608.48 225.686 C 589.915 229.993 602.778 189.919 612.868 198.819 C 635.277 218.586 601.347 262.502 587.025 230.481 C 575.048 203.703 587.059 174.21 612.393 177.015 C 617.735 177.606 624.346 178.807 628.363 183.53 C 632.469 188.359 633.145 199.631 633.386 205.981 C 634.176 226.733 634.336 252.296 614.785 260.93 C 603.062 266.108 580.903 260.058 575.79 245.045 C 574.397 240.955 573.969 224.375 572.756 223.897" style="fill: none; stroke: rgb(245, 161, 45); stroke-width: 8px;"/>
      <path d="M 573.737 182.784 C 584.509 158.016 590.137 148.973 615.782 152.414 C 623.201 153.41 629.184 156.595 635.225 161.693 C 636.993 163.185 639.859 165.297 640.589 167.937 C 640.81 168.737 640.981 172.102 640.9 172.006" style="fill: none; stroke: rgb(245, 161, 45); stroke-width: 8px;"/>
      <path d="M 566.433 260.244 C 581.452 278.01 615.641 286.13 632.459 265.118" style="fill: none; stroke: rgb(245, 161, 45); stroke-width: 8px;"/>
    </g>
  </g>
</svg>