<?xml version="1.0" encoding="utf-8"?>
<svg viewBox="0 0 500 500" xmlns="http://www.w3.org/2000/svg">
  <rect x="222.064" y="127.459" width="252.99" height="256.349" style="fill: rgb(216, 216, 216); stroke-width: 11px; stroke: rgb(90, 90, 90);"/>
  <line style="stroke: rgb(86, 85, 85); stroke-width: 10px;" x1="222.064" y1="166.951" x2="475.292" y2="166.801"/>
  <line style="stroke: rgb(86, 85, 85); stroke-width: 10px;" x1="222.064" y1="239.09" x2="475.292" y2="238.941"/>
  <line style="stroke: rgb(86, 85, 85); stroke-width: 10px;" x1="221.827" y1="203.021" x2="475.055" y2="202.871"/>
  <line style="stroke: rgb(86, 85, 85); stroke-width: 10px;" x1="222.064" y1="275.16" x2="475.292" y2="275.011"/>
  <line style="stroke: rgb(86, 85, 85); stroke-width: 10px;" x1="222.064" y1="311.229" x2="475.292" y2="311.082"/>
  <line style="stroke: rgb(86, 85, 85); stroke-width: 10px;" x1="221.827" y1="347.3" x2="475.055" y2="347.151"/>
  <line style="stroke: rgb(86, 85, 85); stroke-width: 10px;" x1="280.617" y1="127.459" x2="280.86" y2="383.808"/>
  <line style="stroke: rgb(86, 85, 85); stroke-width: 10px;" x1="354.724" y1="127.459" x2="354.759" y2="383.808"/>
  <line style="stroke: rgb(86, 85, 85); stroke-width: 10px;" x1="415.59" y1="127.459" x2="416.283" y2="383.808"/>
  <path d="M 15.202 235.035 C 29.621 235.035 39.901 252.577 43.225 266.748 C 44.21 270.952 44.812 275.569 45.064 279.909 C 45.201 282.287 45.129 289.443 45.129 287.059 C 45.129 276.417 54.986 257.523 59.418 248.497 C 84.071 198.306 127.822 171.806 178.632 188.789" style="fill: none; stroke: rgb(245, 161, 40); stroke-width: 12px;"/>
  <path d="M 137.17 188.339 H 188.596 L 188.596 176.839 L 236.606 206.839 L 188.596 236.839 L 188.596 225.339 H 137.17 V 188.339 Z" style="fill: rgb(245, 161, 40);" transform="matrix(0.999817, 0.019153, -0.019153, 0.999817, 6.65924, 46.211224)"/>
</svg>