<?xml version="1.0" encoding="utf-8"?>
<svg viewBox="0 0 500 500" xmlns="http://www.w3.org/2000/svg">
  <rect x="100.181" y="30.86" width="192.023" height="216.932" style="fill: rgb(216, 216, 216); stroke-width: 11px; stroke: rgb(90, 90, 90);"/>
  <line style="stroke: rgb(86, 85, 85); stroke-width: 10px;" x1="100.181" y1="64.28" x2="292.383" y2="64.153"/>
  <line style="stroke: rgb(86, 85, 85); stroke-width: 10px;" x1="100.181" y1="125.328" x2="292.383" y2="125.201"/>
  <line style="stroke: rgb(86, 85, 85); stroke-width: 10px;" x1="100" y1="94.804" x2="292.202" y2="94.677"/>
  <line style="stroke: rgb(86, 85, 85); stroke-width: 10px;" x1="100.181" y1="155.85" x2="292.383" y2="155.725"/>
  <line style="stroke: rgb(86, 85, 85); stroke-width: 10px;" x1="100.181" y1="186.374" x2="292.383" y2="186.25"/>
  <line style="stroke: rgb(86, 85, 85); stroke-width: 10px;" x1="100" y1="216.898" x2="292.202" y2="216.774"/>
  <line style="stroke: rgb(86, 85, 85); stroke-width: 10px;" x1="144.622" y1="30.86" x2="144.807" y2="247.793"/>
  <line style="stroke: rgb(86, 85, 85); stroke-width: 10px;" x1="200.87" y1="30.86" x2="200.898" y2="247.793"/>
  <line style="stroke: rgb(86, 85, 85); stroke-width: 10px;" x1="247.069" y1="30.86" x2="247.595" y2="247.793"/>
  <rect x="292.202" y="30.86" width="90.785" height="216.932" style="fill: rgb(216, 216, 216); stroke-width: 11px; stroke: rgb(159, 157, 154);"/>
  <line style="stroke-width: 10px; stroke: rgb(159, 157, 154);" x1="321.226" y1="30.86" x2="321.41" y2="247.793"/>
  <line style="stroke-width: 10px; stroke: rgb(159, 157, 154);" x1="354.148" y1="30.86" x2="354.333" y2="247.793"/>
  <line style="stroke-width: 10px; stroke: rgb(159, 157, 154);" x1="292.383" y1="64.153" x2="382.987" y2="64.028"/>
  <line style="stroke-width: 10px; stroke: rgb(159, 157, 154);" x1="292.202" y1="94.677" x2="382.807" y2="94.552"/>
  <line style="stroke-width: 10px; stroke: rgb(159, 157, 154);" x1="292.383" y1="125.201" x2="382.987" y2="125.076"/>
  <line style="stroke-width: 10px; stroke: rgb(159, 157, 154);" x1="292.202" y1="155.725" x2="382.807" y2="155.599"/>
  <line style="stroke-width: 10px; stroke: rgb(159, 157, 154);" x1="292.202" y1="186.25" x2="382.807" y2="186.124"/>
  <line style="stroke-width: 10px; stroke: rgb(159, 157, 154);" x1="292.202" y1="216.774" x2="382.807" y2="216.648"/>
  <rect x="185.657" width="73.294" height="247.508" style="stroke-width: 11px; fill: none; stroke: rgb(245, 160, 40);" y="17.301"/>
  <line style="stroke-width: 9px; stroke: rgb(245, 160, 40);" x1="185.657" y1="283.355" x2="258.951" y2="283.684"/>
  <line style="stroke-width: 9px; stroke: rgb(245, 160, 40);" x1="185.657" y1="283.684" x2="220.571" y2="301.998"/>
  <line style="stroke-width: 9px; stroke: rgb(245, 160, 40);" x1="220.571" y1="301.998" x2="185.657" y2="323.626"/>
  <line style="stroke-width: 9px; stroke: rgb(245, 160, 40);" x1="185.657" y1="323.626" x2="258.951" y2="323.626"/>
  <path d="M 401.748 181.733 L 387.698 181.733 L 387.698 177.483 L 391.338 176.983 L 408.488 132.683 L 414.178 132.683 L 431.028 176.983 L 434.628 177.483 L 434.628 181.733 L 420.548 181.733 L 420.548 177.483 L 424.248 176.843 L 421.018 167.823 L 401.378 167.823 L 398.038 176.843 L 401.748 177.483 L 401.748 181.733 Z M 410.778 142.313 L 403.428 162.263 L 418.998 162.263 L 411.788 142.313 L 411.378 141.203 L 411.178 141.203 L 410.778 142.313 ZM 448.74 182.303 C 446.047 182.303 443.91 181.513 442.33 179.933 C 440.744 178.346 439.95 175.813 439.95 172.333 L 439.95 150.193 L 434.19 150.193 L 434.19 145.283 L 439.95 145.283 L 439.95 136.483 L 446.59 136.483 L 446.59 145.283 L 454.5 145.283 L 454.5 150.193 L 446.59 150.193 L 446.59 172.333 C 446.59 174.086 446.937 175.376 447.63 176.203 C 448.33 177.036 449.264 177.453 450.43 177.453 C 451.217 177.453 452.094 177.38 453.06 177.233 C 454.02 177.086 454.77 176.956 455.31 176.843 L 456.22 181.193 C 455.254 181.486 454.07 181.746 452.67 181.973 C 451.264 182.193 449.954 182.303 448.74 182.303 ZM 473.334 182.303 C 470.641 182.303 468.504 181.513 466.924 179.933 C 465.338 178.346 464.544 175.813 464.544 172.333 L 464.544 150.193 L 458.784 150.193 L 458.784 145.283 L 464.544 145.283 L 464.544 136.483 L 471.184 136.483 L 471.184 145.283 L 479.094 145.283 L 479.094 150.193 L 471.184 150.193 L 471.184 172.333 C 471.184 174.086 471.531 175.376 472.224 176.203 C 472.924 177.036 473.858 177.453 475.024 177.453 C 475.811 177.453 476.688 177.38 477.654 177.233 C 478.614 177.086 479.364 176.956 479.904 176.843 L 480.814 181.193 C 479.848 181.486 478.664 181.746 477.264 181.973 C 475.858 182.193 474.548 182.303 473.334 182.303 ZM 502.618 181.733 L 484.998 181.733 L 484.998 177.483 L 490.488 176.543 L 490.488 150.503 L 484.998 149.553 L 484.998 145.283 L 496.418 145.283 L 496.988 149.933 L 497.058 150.573 C 498.092 148.706 499.365 147.246 500.878 146.193 C 502.398 145.133 504.135 144.603 506.088 144.603 C 506.782 144.603 507.495 144.666 508.228 144.793 C 508.955 144.913 509.475 145.03 509.788 145.143 L 508.918 151.313 L 504.298 151.043 C 502.545 150.93 501.075 151.326 499.888 152.233 C 498.695 153.146 497.772 154.366 497.118 155.893 L 497.118 176.543 L 502.618 177.483 L 502.618 181.733 ZM 531.22 181.733 L 513.6 181.733 L 513.6 177.483 L 519.09 176.543 L 519.09 150.503 L 513.6 149.553 L 513.6 145.283 L 525.73 145.283 L 525.73 176.543 L 531.22 177.483 L 531.22 181.733 Z M 525.73 136.283 L 518.75 136.283 L 518.75 129.173 L 525.73 129.173 L 525.73 136.283 ZM 555.176 182.443 C 552.789 182.443 550.723 181.986 548.976 181.073 C 547.223 180.166 545.763 178.826 544.596 177.053 L 543.986 181.733 L 538.256 181.733 L 538.256 134.393 L 532.766 133.453 L 532.766 129.173 L 544.896 129.173 L 544.896 149.593 C 546.043 147.973 547.463 146.736 549.156 145.883 C 550.856 145.03 552.839 144.603 555.106 144.603 C 558.113 144.603 560.679 145.416 562.806 147.043 C 564.926 148.676 566.553 150.963 567.686 153.903 C 568.819 156.843 569.386 160.27 569.386 164.183 L 569.386 164.883 C 569.386 168.39 568.819 171.456 567.686 174.083 C 566.553 176.71 564.926 178.76 562.806 180.233 C 560.679 181.706 558.136 182.443 555.176 182.443 Z M 553.486 177.053 C 556.606 177.053 558.926 175.94 560.446 173.713 C 561.959 171.493 562.716 168.55 562.716 164.883 L 562.716 164.183 C 562.716 161.376 562.379 158.91 561.706 156.783 C 561.033 154.663 560.013 153.003 558.646 151.803 C 557.273 150.596 555.529 149.993 553.416 149.993 C 551.376 149.993 549.653 150.49 548.246 151.483 C 546.846 152.47 545.729 153.793 544.896 155.453 L 544.896 171.563 C 545.729 173.243 546.859 174.576 548.286 175.563 C 549.713 176.556 551.446 177.053 553.486 177.053 ZM 590.411 182.443 C 586.458 182.443 583.371 181.173 581.151 178.633 C 578.925 176.093 577.811 172.14 577.811 166.773 L 577.811 150.503 L 573.631 149.553 L 573.631 145.283 L 577.811 145.283 L 584.451 145.283 L 584.451 166.843 C 584.451 170.73 585.025 173.403 586.171 174.863 C 587.311 176.323 589.095 177.053 591.521 177.053 C 593.881 177.053 595.831 176.576 597.371 175.623 C 598.911 174.663 600.071 173.31 600.851 171.563 L 600.851 150.503 L 595.971 149.553 L 595.971 145.283 L 600.851 145.283 L 607.491 145.283 L 607.491 176.543 L 611.671 177.483 L 611.671 181.733 L 601.531 181.733 L 601.091 176.343 C 599.945 178.296 598.468 179.8 596.661 180.853 C 594.855 181.913 592.771 182.443 590.411 182.443 ZM 629.186 182.303 C 626.492 182.303 624.356 181.513 622.776 179.933 C 621.189 178.346 620.396 175.813 620.396 172.333 L 620.396 150.193 L 614.636 150.193 L 614.636 145.283 L 620.396 145.283 L 620.396 136.483 L 627.036 136.483 L 627.036 145.283 L 634.946 145.283 L 634.946 150.193 L 627.036 150.193 L 627.036 172.333 C 627.036 174.086 627.382 175.376 628.076 176.203 C 628.776 177.036 629.709 177.453 630.876 177.453 C 631.662 177.453 632.539 177.38 633.506 177.233 C 634.466 177.086 635.216 176.956 635.756 176.843 L 636.666 181.193 C 635.699 181.486 634.516 181.746 633.116 181.973 C 631.709 182.193 630.399 182.303 629.186 182.303 ZM 656.846 182.443 C 653.479 182.443 650.549 181.673 648.056 180.133 C 645.562 178.593 643.636 176.453 642.276 173.713 C 640.916 170.973 640.236 167.806 640.236 164.213 L 640.236 162.733 C 640.236 159.273 640.949 156.18 642.376 153.453 C 643.802 150.72 645.702 148.563 648.076 146.983 C 650.442 145.396 653.029 144.603 655.836 144.603 C 659.116 144.603 661.862 145.276 664.076 146.623 C 666.289 147.976 667.956 149.87 669.076 152.303 C 670.202 154.743 670.766 157.613 670.766 160.913 L 670.766 165.053 L 647.116 165.053 L 647.016 165.223 C 647.056 167.563 647.462 169.636 648.236 171.443 C 649.016 173.25 650.136 174.67 651.596 175.703 C 653.056 176.736 654.806 177.253 656.846 177.253 C 659.092 177.253 661.066 176.933 662.766 176.293 C 664.459 175.653 665.922 174.77 667.156 173.643 L 669.756 177.963 C 668.449 179.216 666.726 180.276 664.586 181.143 C 662.439 182.01 659.859 182.443 656.846 182.443 Z M 647.246 159.703 L 647.316 159.863 L 664.126 159.863 L 664.126 158.993 C 664.126 157.24 663.816 155.673 663.196 154.293 C 662.582 152.913 661.662 151.823 660.436 151.023 C 659.209 150.223 657.676 149.823 655.836 149.823 C 654.356 149.823 653.009 150.256 651.796 151.123 C 650.582 151.99 649.582 153.163 648.796 154.643 C 648.009 156.13 647.492 157.816 647.246 159.703 ZM 690.842 182.443 C 688.396 182.443 686.106 182.196 683.972 181.703 C 681.839 181.21 679.569 180.446 677.162 179.413 L 677.092 170.753 L 682.112 170.753 L 683.362 175.973 C 684.622 176.486 685.842 176.863 687.022 177.103 C 688.196 177.336 689.469 177.453 690.842 177.453 C 693.536 177.453 695.466 176.936 696.632 175.903 C 697.806 174.87 698.392 173.59 698.392 172.063 C 698.392 170.623 697.802 169.406 696.622 168.413 C 695.442 167.413 693.302 166.563 690.202 165.863 C 685.802 164.856 682.562 163.503 680.482 161.803 C 678.402 160.11 677.362 157.846 677.362 155.013 C 677.362 153.04 677.936 151.273 679.082 149.713 C 680.229 148.146 681.826 146.903 683.872 145.983 C 685.912 145.063 688.292 144.603 691.012 144.603 C 693.772 144.603 696.136 144.92 698.102 145.553 C 700.069 146.18 701.782 147.02 703.242 148.073 L 703.582 156.393 L 698.592 156.393 L 697.512 151.543 C 696.726 150.963 695.792 150.513 694.712 150.193 C 693.639 149.88 692.406 149.723 691.012 149.723 C 688.946 149.723 687.266 150.206 685.972 151.173 C 684.679 152.14 684.032 153.353 684.032 154.813 C 684.032 155.666 684.219 156.406 684.592 157.033 C 684.966 157.666 685.679 158.236 686.732 158.743 C 687.786 159.243 689.336 159.74 691.382 160.233 C 696.456 161.426 699.999 162.943 702.012 164.783 C 704.019 166.63 705.022 168.9 705.022 171.593 C 705.022 174.666 703.882 177.243 701.602 179.323 C 699.322 181.403 695.736 182.443 690.842 182.443 Z" transform="matrix(1.117941975593567, 0, 0, 1.3330090045928955, -368.9000244140625, 177.6820526123047)" style="fill: rgb(245, 160, 40); white-space: pre;"/>
</svg>