<?xml version="1.0" encoding="utf-8"?>
<svg viewBox="0 0 500 500" xmlns="http://www.w3.org/2000/svg">
  <path style="stroke: rgb(245, 161, 40); fill: none; stroke-width: 40px;" d="M 230.121 157.692 C 354.744 157.692 432.632 280.756 370.321 379.206 C 308.01 477.657 152.231 477.657 89.92 379.206 C 59.546 331.216 61.181 271.754 94.153 225.213"/>
  <path d="M 284.163 107.578 L 353.954 222.925 L 214.371 222.925 L 284.163 107.578 Z" style="fill: rgb(245, 161, 40);" transform="matrix(-0.875786, 0.4827, -0.4827, -0.875786, 539.375549, 177.511856)"/>
  <path d="M 159.052 359.404 L 120.742 359.404 L 120.742 350.174 L 132.682 348.124 L 132.682 264.114 L 120.742 262.064 L 120.742 252.764 L 132.682 252.764 L 169.742 252.764 C 177.362 252.764 183.855 254.094 189.222 256.754 C 194.595 259.414 198.699 263.137 201.532 267.924 C 204.365 272.711 205.782 278.301 205.782 284.694 C 205.782 291.141 204.365 296.757 201.532 301.544 C 198.699 306.331 194.595 310.041 189.222 312.674 C 183.855 315.314 177.362 316.634 169.742 316.634 L 147.112 316.634 L 147.112 348.124 L 159.052 350.174 L 159.052 359.404 Z M 147.112 264.114 L 147.112 305.354 L 169.742 305.354 C 176.969 305.354 182.375 303.411 185.962 299.524 C 189.555 295.644 191.352 290.751 191.352 284.844 C 191.352 278.937 189.555 274.004 185.962 270.044 C 182.375 266.091 176.969 264.114 169.742 264.114 L 147.112 264.114 ZM 254.047 359.404 L 215.737 359.404 L 215.737 350.174 L 227.677 348.124 L 227.677 264.114 L 215.737 262.064 L 215.737 252.764 L 254.047 252.764 L 254.047 262.064 L 242.107 264.114 L 242.107 348.124 L 254.047 350.174 L 254.047 359.404 ZM 308.388 359.404 L 265.908 359.404 L 265.908 350.174 L 277.848 348.124 L 277.848 264.114 L 265.908 262.064 L 265.908 252.764 L 277.848 252.764 L 307.658 252.764 C 317.085 252.764 325.301 255.011 332.308 259.504 C 339.315 263.997 344.771 270.174 348.678 278.034 C 352.585 285.894 354.538 294.877 354.538 304.984 L 354.538 307.254 C 354.538 317.121 352.658 325.997 348.898 333.884 C 345.138 341.764 339.801 347.987 332.888 352.554 C 325.981 357.121 317.815 359.404 308.388 359.404 Z M 292.278 264.114 L 292.278 348.124 L 307.658 348.124 C 314.398 348.124 320.185 346.281 325.018 342.594 C 329.851 338.907 333.575 333.977 336.188 327.804 C 338.801 321.624 340.108 314.774 340.108 307.254 L 340.108 304.834 C 340.108 297.074 338.801 290.131 336.188 284.004 C 333.575 277.877 329.851 273.031 325.018 269.464 C 320.185 265.897 314.398 264.114 307.658 264.114 L 292.278 264.114 Z" transform="matrix(1, 0, 0, 1, 0, 0)" style="fill: rgba(51, 51, 51, 0.58); white-space: pre;"/>
</svg>