<?xml version="1.0" encoding="utf-8"?>
<svg viewBox="0 0 500 500" xmlns="http://www.w3.org/2000/svg">
  <path d="M 57.446 1008.88 H 424.63 L 424.63 958.923 L 507.127 1025.412 L 424.63 1091.901 L 424.63 1041.945 H 57.446 V 1008.88 Z" style="fill: rgb(155, 154, 154);" transform="matrix(0.999994, 0.00343, -0.004056, 0.999992, -11.593179, -758.987671)"/>
  <path d="M 123.482 421.573 L 101.102 421.573 L 101.102 314.073 L 123.482 314.073 L 123.482 319.943 L 108.852 319.943 L 108.852 415.703 L 123.482 415.703 L 123.482 421.573 ZM 171.755 421.573 L 149.375 421.573 L 149.375 314.073 L 171.755 314.073 L 171.755 319.943 L 157.125 319.943 L 157.125 415.703 L 171.755 415.703 L 171.755 421.573 ZM 201.528 404.073 C 199.441 404.073 197.668 403.343 196.208 401.883 C 194.755 400.423 194.028 398.57 194.028 396.323 C 194.028 393.903 194.755 391.966 196.208 390.513 C 197.668 389.053 199.441 388.323 201.528 388.323 C 203.528 388.323 205.255 389.053 206.708 390.513 C 208.168 391.966 208.898 393.903 208.898 396.323 C 208.898 398.57 208.168 400.423 206.708 401.883 C 205.255 403.343 203.528 404.073 201.528 404.073 ZM 243.051 404.073 C 240.965 404.073 239.191 403.343 237.731 401.883 C 236.278 400.423 235.551 398.57 235.551 396.323 C 235.551 393.903 236.278 391.966 237.731 390.513 C 239.191 389.053 240.965 388.323 243.051 388.323 C 245.051 388.323 246.778 389.053 248.231 390.513 C 249.691 391.966 250.421 393.903 250.421 396.323 C 250.421 398.57 249.691 400.423 248.231 401.883 C 246.778 403.343 245.051 404.073 243.051 404.073 ZM 295.075 421.573 L 272.825 421.573 L 272.825 415.703 L 287.325 415.703 L 287.325 319.943 L 272.825 319.943 L 272.825 314.073 L 295.075 314.073 L 295.075 421.573 ZM 343.348 421.573 L 321.098 421.573 L 321.098 415.703 L 335.598 415.703 L 335.598 319.943 L 321.098 319.943 L 321.098 314.073 L 343.348 314.073 L 343.348 421.573 Z" transform="matrix(1.476573, 0, 0, 1.357891, -106.091507, -367.69339)" style="white-space: pre; fill: rgb(96, 96, 96);"/>
  <path d="M 48.166 477.675 L 45.296 486.145 C 35.963 483.512 29.323 479.325 25.376 473.585 C 21.429 467.838 19.456 460.898 19.456 452.765 L 19.456 438.055 C 19.456 432.695 18.236 428.518 15.796 425.525 C 13.356 422.532 9.599 421.035 4.526 421.035 L 4.526 410.485 C 9.599 410.485 13.356 409.015 15.796 406.075 C 18.236 403.135 19.456 398.958 19.456 393.545 L 19.456 378.765 C 19.456 370.578 21.429 363.628 25.376 357.915 C 29.323 352.195 35.963 348.018 45.296 345.385 L 48.166 353.785 C 42.906 355.458 39.163 358.462 36.936 362.795 C 34.709 367.122 33.596 372.445 33.596 378.765 L 33.596 393.545 C 33.596 398.572 32.593 402.998 30.586 406.825 C 28.573 410.658 25.533 413.652 21.466 415.805 C 25.533 418.005 28.573 421.028 30.586 424.875 C 32.593 428.728 33.596 433.122 33.596 438.055 L 33.596 452.765 C 33.596 459.085 34.709 464.385 36.936 468.665 C 39.163 472.945 42.906 475.948 48.166 477.675 ZM 84.986 461.525 C 79.2 461.525 73.95 460.375 69.236 458.075 C 64.523 455.782 60.743 452.312 57.896 447.665 C 55.05 443.025 53.483 437.212 53.196 430.225 L 53.336 429.795 L 66.906 429.795 C 67.093 436.828 68.706 441.998 71.746 445.305 C 74.786 448.605 79.13 450.255 84.776 450.255 C 88.75 450.255 92.003 449.405 94.536 447.705 C 97.07 446.005 98.946 443.662 100.166 440.675 C 101.393 437.682 102.006 434.248 102.006 430.375 L 102.006 366.635 L 88.076 364.765 L 88.076 355.505 L 127.846 355.505 L 127.846 364.625 L 116.146 366.635 L 116.146 430.375 C 116.146 436.595 114.96 442.048 112.586 446.735 C 110.22 451.428 106.726 455.065 102.106 457.645 C 97.493 460.232 91.786 461.525 84.986 461.525 ZM 176.294 461.525 C 169.927 461.525 163.801 460.592 157.914 458.725 C 152.027 456.858 146.404 453.985 141.044 450.105 L 141.044 427.785 L 152.034 427.785 L 154.394 444.225 C 157.507 446.138 160.884 447.622 164.524 448.675 C 168.157 449.728 172.081 450.255 176.294 450.255 C 181.074 450.255 185.127 449.525 188.454 448.065 C 191.781 446.605 194.331 444.582 196.104 441.995 C 197.871 439.415 198.754 436.402 198.754 432.955 C 198.754 429.748 197.991 426.925 196.464 424.485 C 194.931 422.045 192.404 419.905 188.884 418.065 C 185.371 416.218 180.574 414.602 174.494 413.215 C 167.321 411.542 161.257 409.305 156.304 406.505 C 151.351 403.705 147.594 400.308 145.034 396.315 C 142.474 392.315 141.194 387.732 141.194 382.565 C 141.194 377.112 142.641 372.232 145.534 367.925 C 148.427 363.618 152.457 360.222 157.624 357.735 C 162.797 355.242 168.827 353.995 175.714 353.995 C 183.034 353.995 189.507 355.108 195.134 357.335 C 200.754 359.562 205.384 362.255 209.024 365.415 L 209.024 386.295 L 198.044 386.295 L 195.674 371.365 C 193.521 369.645 190.841 368.212 187.634 367.065 C 184.427 365.918 180.454 365.345 175.714 365.345 C 171.694 365.345 168.154 366.048 165.094 367.455 C 162.034 368.868 159.641 370.842 157.914 373.375 C 156.194 375.915 155.334 378.908 155.334 382.355 C 155.334 385.368 156.111 387.998 157.664 390.245 C 159.217 392.498 161.754 394.472 165.274 396.165 C 168.787 397.865 173.487 399.458 179.374 400.945 C 190.381 403.672 198.721 407.702 204.394 413.035 C 210.061 418.368 212.894 424.962 212.894 432.815 C 212.894 438.408 211.387 443.372 208.374 447.705 C 205.361 452.038 201.114 455.425 195.634 457.865 C 190.154 460.305 183.707 461.525 176.294 461.525 ZM 267.808 461.525 C 261.061 461.525 255.008 460.232 249.648 457.645 C 244.288 455.065 239.731 451.418 235.978 446.705 C 232.218 441.992 229.344 436.405 227.358 429.945 C 225.371 423.485 224.378 416.355 224.378 408.555 L 224.378 407.045 C 224.378 399.292 225.371 392.172 227.358 385.685 C 229.344 379.205 232.218 373.595 235.978 368.855 C 239.731 364.122 244.288 360.462 249.648 357.875 C 255.008 355.288 261.061 353.995 267.808 353.995 C 274.934 353.995 281.204 355.288 286.618 357.875 C 292.024 360.462 296.558 364.122 300.218 368.855 C 303.878 373.595 306.641 379.205 308.508 385.685 C 310.374 392.172 311.308 399.292 311.308 407.045 L 311.308 408.555 C 311.308 416.355 310.374 423.485 308.508 429.945 C 306.641 436.405 303.878 441.992 300.218 446.705 C 296.558 451.418 292.024 455.065 286.618 457.645 C 281.204 460.232 274.934 461.525 267.808 461.525 Z M 267.808 449.755 C 274.748 449.755 280.358 448.032 284.638 444.585 C 288.924 441.138 292.071 436.315 294.078 430.115 C 296.084 423.922 297.088 416.735 297.088 408.555 L 297.088 406.895 C 297.088 398.762 296.071 391.622 294.038 385.475 C 292.004 379.328 288.834 374.518 284.528 371.045 C 280.221 367.578 274.648 365.845 267.808 365.845 C 261.541 365.845 256.231 367.592 251.878 371.085 C 247.518 374.578 244.214 379.398 241.968 385.545 C 239.721 391.692 238.598 398.808 238.598 406.895 L 238.598 408.555 C 238.598 416.688 239.721 423.852 241.968 430.045 C 244.214 436.245 247.518 441.078 251.878 444.545 C 256.231 448.018 261.541 449.755 267.808 449.755 ZM 359.829 460.015 L 322.289 460.015 L 322.289 450.975 L 333.989 448.965 L 333.989 366.635 L 322.289 364.625 L 322.289 355.505 L 333.989 355.505 L 348.269 355.505 L 399.519 436.975 L 399.949 436.835 L 399.949 366.635 L 387.099 364.625 L 387.099 355.505 L 412.939 355.505 L 424.639 355.505 L 424.639 364.625 L 412.939 366.635 L 412.939 460.015 L 400.019 460.015 L 347.409 378.115 L 346.979 378.265 L 346.979 448.965 L 359.829 450.975 L 359.829 460.015 ZM 435.408 486.145 L 432.538 477.675 C 437.705 475.948 441.412 472.945 443.658 468.665 C 445.912 464.385 447.038 459.085 447.038 452.765 L 447.038 438.055 C 447.038 432.935 448.115 428.458 450.268 424.625 C 452.422 420.798 455.745 417.858 460.238 415.805 C 455.745 413.838 452.422 410.942 450.268 407.115 C 448.115 403.288 447.038 398.765 447.038 393.545 L 447.038 378.765 C 447.038 372.445 445.912 367.122 443.658 362.795 C 441.412 358.462 437.705 355.458 432.538 353.785 L 435.408 345.385 C 444.688 348.018 451.305 352.195 455.258 357.915 C 459.205 363.628 461.178 370.578 461.178 378.765 L 461.178 393.545 C 461.178 398.958 462.398 403.135 464.838 406.075 C 467.278 409.015 471.058 410.485 476.178 410.485 L 476.178 421.035 C 471.058 421.035 467.278 422.532 464.838 425.525 C 462.398 428.518 461.178 432.695 461.178 438.055 L 461.178 452.765 C 461.178 460.898 459.205 467.838 455.258 473.585 C 451.305 479.325 444.688 483.512 435.408 486.145 Z" transform="matrix(1, 0, 0, 1, 0, 0)" style="fill: rgb(245, 161, 40); white-space: pre;"/>
</svg>