<?xml version="1.0" encoding="utf-8"?>
<svg viewBox="0 0 500 500" xmlns="http://www.w3.org/2000/svg">
  <g transform="matrix(1, 0, 0, 1, -38.140938, 6.069)">
    <rect x="171.295" y="93.931" width="315.533" height="369.394" style="fill: rgb(216, 216, 216); stroke-width: 11px; stroke: rgb(90, 90, 90);"/>
    <line style="stroke: rgb(86, 85, 85); stroke-width: 10px;" x1="205.92" y1="150.838" x2="444.689" y2="150.623"/>
    <line style="stroke: rgb(86, 85, 85); stroke-width: 10px;" x1="205.696" y1="254.79" x2="444.465" y2="254.575"/>
    <line style="stroke: rgb(86, 85, 85); stroke-width: 10px;" x1="205.697" y1="202.814" x2="444.465" y2="202.598"/>
    <line style="stroke: rgb(86, 85, 85); stroke-width: 10px;" x1="205.92" y1="306.765" x2="444.689" y2="306.55"/>
    <line style="stroke: rgb(86, 85, 85); stroke-width: 10px;" x1="205.92" y1="358.74" x2="444.689" y2="358.528"/>
    <line style="stroke: rgb(86, 85, 85); stroke-width: 10px;" x1="205.697" y1="410.717" x2="444.465" y2="410.503"/>
  </g>
  <g transform="matrix(0.962298, 0.272004, -0.272004, 0.962298, -258.573792, -154.816971)">
    <rect x="431.221" y="100" width="315.533" height="369.394" style="fill: rgb(216, 216, 216); stroke-width: 11px; stroke: rgb(90, 90, 90);"/>
    <line style="stroke: rgb(86, 85, 85); stroke-width: 10px;" x1="431.516" y1="151.058" x2="746.754" y2="150.838"/>
    <line style="stroke: rgb(86, 85, 85); stroke-width: 10px;" x1="431.221" y1="257.35" x2="746.459" y2="257.13"/>
    <line style="stroke: rgb(86, 85, 85); stroke-width: 10px;" x1="431.222" y1="204.204" x2="746.459" y2="203.983"/>
    <line style="stroke: rgb(86, 85, 85); stroke-width: 10px;" x1="431.516" y1="310.494" x2="746.754" y2="310.274"/>
    <line style="stroke: rgb(86, 85, 85); stroke-width: 10px;" x1="431.516" y1="363.639" x2="746.754" y2="363.422"/>
    <line style="stroke: rgb(86, 85, 85); stroke-width: 10px;" x1="431.222" y1="416.786" x2="746.459" y2="416.567"/>
    <line style="stroke-width: 11px; stroke: rgb(85, 85, 85);" x1="492.388" y1="100" x2="492.388" y2="469.394"/>
    <line style="stroke-width: 11px; stroke: rgb(85, 85, 85);" x1="600" y1="100" x2="600" y2="469.394"/>
    <line style="stroke-width: 11px; stroke: rgb(85, 85, 85);" x1="669.984" y1="100" x2="669.984" y2="469.394"/>
  </g>
  <path d="M 171.126 244.503 C 184.986 246.119 196.517 257.525 205.959 268.561 C 223.845 289.463 238.522 315.398 238.522 345.589 C 238.522 347.164 239.017 342.493 239.307 340.956 C 239.712 338.825 240.13 336.697 240.561 334.573 C 241.467 330.125 242.627 324.669 243.896 320.491 C 249.324 302.604 259.153 287.055 270.929 274.004 C 280.655 263.224 291.19 252.631 302.431 243.991 C 331.321 221.782 364.268 207.807 397.655 197.835 C 410.615 193.965 423.424 190.412 436.66 188.144 C 440.895 187.418 445.149 186.872 449.431 186.872 C 450.162 186.872 455.446 187.22 454.426 187.22" style="fill: none; stroke: rgb(245, 161, 40); stroke-width: 20px;" transform="matrix(0.976453, -0.215731, 0.215731, 0.976453, -50.102154, 73.762245)"/>
</svg>