<?xml version="1.0" encoding="utf-8"?>
<svg viewBox="0 0 500 500" xmlns="http://www.w3.org/2000/svg">
  <svg viewBox="0 0 500 500" xmlns="http://www.w3.org/2000/svg" transform="matrix(2.16, 0, 0, 2.16, 420, 0)"/>
  <path d="M 132.884 -2.166 L 123.134 -9.966 C 127.134 -14.866 131.584 -18.716 136.484 -21.516 C 141.384 -24.316 147.284 -25.716 154.184 -25.716 C 158.384 -25.716 162.207 -25.066 165.654 -23.766 C 169.107 -22.466 172.084 -20.716 174.584 -18.516 C 177.084 -16.316 179.034 -13.743 180.434 -10.796 C 181.834 -7.843 182.534 -4.666 182.534 -1.266 C 182.534 3.034 181.807 6.684 180.354 9.684 C 178.907 12.684 177.084 15.357 174.884 17.704 C 172.684 20.057 170.311 22.234 167.764 24.234 C 165.211 26.234 162.834 28.334 160.634 30.534 C 158.434 32.734 156.607 35.184 155.154 37.884 C 153.707 40.584 152.984 43.834 152.984 47.634 L 152.984 56.034 L 141.284 56.034 C 140.784 54.334 140.407 52.484 140.154 50.484 C 139.907 48.484 139.784 46.634 139.784 44.934 C 139.784 40.734 140.484 37.084 141.884 33.984 C 143.284 30.884 145.034 28.161 147.134 25.814 C 149.234 23.461 151.484 21.334 153.884 19.434 C 156.284 17.534 158.534 15.611 160.634 13.664 C 162.734 11.711 164.484 9.634 165.884 7.434 C 167.284 5.234 167.984 2.684 167.984 -0.216 C 167.984 -3.716 166.634 -6.789 163.934 -9.436 C 161.234 -12.089 157.584 -13.416 152.984 -13.416 C 148.784 -13.416 145.061 -12.416 141.814 -10.416 C 138.561 -8.416 135.584 -5.666 132.884 -2.166 Z M 137.834 78.834 C 137.834 75.734 138.707 73.284 140.454 71.484 C 142.207 69.684 144.684 68.784 147.884 68.784 C 150.484 68.784 152.811 69.784 154.864 71.784 C 156.911 73.784 157.934 76.134 157.934 78.834 C 157.934 81.834 156.984 84.261 155.084 86.114 C 153.184 87.961 150.784 88.884 147.884 88.884 C 145.184 88.884 142.834 87.884 140.834 85.884 C 138.834 83.884 137.834 81.534 137.834 78.834 Z" transform="matrix(2.9345390796661377, 0, 0, 2.2999958992004395, -191.08416748046875, 98.2720947265625)" style="fill: rgb(231, 172, 59); white-space: pre;"/>
  <path d="M 110.96 434.345 L 68.48 434.345 L 68.48 425.115 L 80.42 423.065 L 80.42 339.055 L 68.48 337.005 L 68.48 327.705 L 80.42 327.705 L 110.23 327.705 C 119.657 327.705 127.873 329.952 134.88 334.445 C 141.887 338.938 147.343 345.115 151.25 352.975 C 155.157 360.835 157.11 369.818 157.11 379.925 L 157.11 382.195 C 157.11 392.062 155.23 400.938 151.47 408.825 C 147.71 416.705 142.373 422.928 135.46 427.495 C 128.553 432.062 120.387 434.345 110.96 434.345 Z M 94.85 339.055 L 94.85 423.065 L 110.23 423.065 C 116.97 423.065 122.757 421.222 127.59 417.535 C 132.423 413.848 136.147 408.918 138.76 402.745 C 141.373 396.565 142.68 389.715 142.68 382.195 L 142.68 379.775 C 142.68 372.015 141.373 365.072 138.76 358.945 C 136.147 352.818 132.423 347.972 127.59 344.405 C 122.757 340.838 116.97 339.055 110.23 339.055 L 94.85 339.055 ZM 192.409 434.345 L 161.869 434.345 L 161.869 425.115 L 169.779 424.015 L 207.059 327.705 L 219.439 327.705 L 256.059 424.015 L 263.889 425.115 L 263.889 434.345 L 233.279 434.345 L 233.279 425.115 L 241.329 423.725 L 234.299 404.095 L 191.599 404.095 L 184.349 423.725 L 192.409 425.115 L 192.409 434.345 Z M 212.039 348.655 L 196.069 392.015 L 229.909 392.015 L 214.239 348.655 L 213.359 346.235 L 212.919 346.235 L 212.039 348.655 ZM 321.972 434.345 L 283.672 434.345 L 283.672 425.115 L 295.612 423.065 L 295.612 338.615 L 271.442 338.615 L 269.312 353.415 L 258.472 353.415 L 258.472 327.705 L 347.092 327.705 L 347.092 353.415 L 336.402 353.415 L 334.202 338.615 L 310.032 338.615 L 310.032 423.065 L 321.972 425.115 L 321.972 434.345 ZM 372.512 434.345 L 341.972 434.345 L 341.972 425.115 L 349.882 424.015 L 387.162 327.705 L 399.542 327.705 L 436.162 424.015 L 443.992 425.115 L 443.992 434.345 L 413.382 434.345 L 413.382 425.115 L 421.432 423.725 L 414.402 404.095 L 371.702 404.095 L 364.452 423.725 L 372.512 425.115 L 372.512 434.345 Z M 392.142 348.655 L 376.172 392.015 L 410.012 392.015 L 394.342 348.655 L 393.462 346.235 L 393.022 346.235 L 392.142 348.655 Z" transform="matrix(1, 0, 0, 1, 0, 0)" style="fill: rgb(148, 148, 148); white-space: pre;"/>
</svg>