<?xml version="1.0" encoding="utf-8"?>
<svg viewBox="0 0 500 500" xmlns="http://www.w3.org/2000/svg">
  <path d="M 40.842 369.832 L 408.026 369.832 L 408.057 319.875 L 490.512 386.364 L 407.974 452.853 L 408.005 402.897 L 40.821 402.897 L 40.842 369.832 Z" style="fill: rgb(245, 161, 40);" transform="matrix(0.999994, 0.00343, -0.00343, 0.999994, 1.326792, -0.908963)"/>
  <path d="M 61.842 278.522 L 19.169 278.522 L 19.169 58.784 L 61.842 58.784 L 61.842 70.782 L 33.946 70.782 L 33.946 266.523 L 61.842 266.523 L 61.842 278.522 Z M 153.884 278.522 L 111.211 278.522 L 111.211 58.784 L 153.884 58.784 L 153.884 70.782 L 125.988 70.782 L 125.988 266.523 L 153.884 266.523 L 153.884 278.522 Z M 210.653 242.75 C 206.674 242.75 203.293 241.258 200.508 238.274 C 197.738 235.29 196.353 231.502 196.353 226.909 C 196.353 221.962 197.738 218.003 200.508 215.033 C 203.293 212.048 206.674 210.556 210.653 210.556 C 214.466 210.556 217.759 212.048 220.529 215.033 C 223.313 218.003 224.704 221.962 224.704 226.909 C 224.704 231.502 223.313 235.29 220.529 238.274 C 217.759 241.258 214.466 242.75 210.653 242.75 Z M 289.825 242.75 C 285.848 242.75 282.466 241.258 279.681 238.274 C 276.911 235.29 275.525 231.502 275.525 226.909 C 275.525 221.962 276.911 218.003 279.681 215.033 C 282.466 212.048 285.848 210.556 289.825 210.556 C 293.639 210.556 296.932 212.048 299.702 215.033 C 302.485 218.003 303.877 221.962 303.877 226.909 C 303.877 231.502 302.485 235.29 299.702 238.274 C 296.932 241.258 293.639 242.75 289.825 242.75 Z M 389.02 278.522 L 346.595 278.522 L 346.595 266.523 L 374.242 266.523 L 374.242 70.782 L 346.595 70.782 L 346.595 58.784 L 389.02 58.784 L 389.02 278.522 Z M 481.062 278.522 L 438.637 278.522 L 438.637 266.523 L 466.285 266.523 L 466.285 70.782 L 438.637 70.782 L 438.637 58.784 L 481.062 58.784 L 481.062 278.522 Z" style="white-space: pre; fill: rgb(96, 96, 96);"/>
</svg>